<svg height="512pt" viewBox="-74 0 512 512" width="512pt" xmlns="http://www.w3.org/2000/svg"><path d="m328.21875 129.699219c-2.863281-3.105469-6.890625-4.871094-11.109375-4.871094h-276.210937c-4.222657 0-8.25 1.765625-11.109376 4.871094-2.863281 3.101562-4.296874 7.261719-3.953124 11.464843l22.519531 277.324219c1.207031 14.890625 7.9375 28.664063 18.945312 38.789063 10.996094 10.113281 25.289063 15.683594 40.242188 15.683594h142.921875c14.953125 0 29.246094-5.570313 40.242187-15.683594 11.007813-10.125 17.734375-23.898438 18.945313-38.789063l22.519531-277.324219c.339844-4.203124-1.09375-8.363281-3.953125-11.464843zm0 0" fill="#93d632"/><path d="m40.898438 124.832031c-4.222657 0-8.25 1.765625-11.109376 4.867188-2.863281 3.101562-4.296874 7.261719-3.953124 11.46875l22.519531 277.324219c1.207031 14.886718 7.9375 28.664062 18.945312 38.785156 10.996094 10.117187 25.289063 15.683594 40.242188 15.683594h71.460937v-348.128907zm0 0" fill="#a7e340"/><path d="m239.074219 92.640625h-120.144531c-8.347657 0-15.113282-6.765625-15.113282-15.113281v-24.765625c0-29.089844 23.71875-52.761719 52.871094-52.761719h44.632812c29.148438 0 52.867188 23.671875 52.867188 52.761719v24.765625c0 8.347656-6.765625 15.113281-15.113281 15.113281zm-105.03125-30.226563h89.921875v-9.648437c0-12.429687-10.160156-22.539063-22.644532-22.539063h-44.632812c-12.488281 0-22.644531 10.109376-22.644531 22.539063zm0 0" fill="#93d632"/><path d="m134.042969 62.414062v-9.648437c0-12.429687 10.15625-22.539063 22.644531-22.539063h22.316406v-30.226562h-22.316406c-29.152344 0-52.867188 23.671875-52.867188 52.761719v24.765625c0 8.347656 6.765626 15.113281 15.109376 15.113281h60.074218v-30.226563zm0 0" fill="#a7e340"/><path d="m357.796875 127.378906-6.429687-28.402344c-3.539063-21.183593-21.699219-36.5625-43.179688-36.5625h-258.367188c-21.480468 0-39.640624 15.378907-43.183593 36.5625l-6.429688 28.402344c-.730469 4.382813.5 8.863282 3.371094 12.253906 2.871094 3.390626 7.089844 5.347657 11.535156 5.347657h327.78125c4.441407 0 8.660157-1.953125 11.53125-5.347657 2.871094-3.390624 4.105469-7.875 3.371094-12.253906zm0 0" fill="#a7e340"/><path d="m49.820312 62.414062c-21.480468 0-39.640624 15.378907-43.183593 36.566407l-6.429688 28.398437c-.730469 4.382813.5 8.863282 3.371094 12.257813 2.871094 3.390625 7.089844 5.34375 11.535156 5.34375h163.890625v-82.566407zm0 0" fill="#cdf55f"/><path d="m279.441406 343.234375c-46.527344 0-84.382812 37.855469-84.382812 84.382813 0 46.527343 37.855468 84.382812 84.382812 84.382812s84.382813-37.855469 84.382813-84.382812c0-46.527344-37.855469-84.382813-84.382813-84.382813zm0 0" fill="#d1093a"/><path d="m279.441406 343.234375c-46.527344 0-84.382812 37.855469-84.382812 84.382813 0 46.527343 37.855468 84.382812 84.382812 84.382812zm0 0" fill="#ff475a"/><path d="m297.371094 427.617188 16.476562-16.472657c4.953125-4.949219 4.960938-12.988281.023438-17.953125-4.933594-4.960937-12.953125-4.972656-17.90625-.023437l-16.523438 16.523437-16.527344-16.523437c-4.949218-4.949219-12.96875-4.941407-17.90625.023437s-4.925781 13.003906.027344 17.953125l16.472656 16.472657-16.472656 16.472656c-4.953125 4.949218-4.960937 12.988281-.027344 17.953125 2.476563 2.488281 5.71875 3.730469 8.96875 3.730469 3.230469 0 6.46875-1.234376 8.9375-3.703126l16.527344-16.523437 16.527344 16.523437c2.46875 2.46875 5.703125 3.703126 8.941406 3.703126 3.246094 0 6.492188-1.242188 8.964844-3.730469 4.9375-4.964844 4.925781-13.003907-.027344-17.953125zm0 0" fill="#ffc247"/><path d="m262.914062 393.167969c-4.949218-4.949219-12.96875-4.941407-17.90625.023437s-4.925781 13.003906.027344 17.953125l16.472656 16.472657-16.472656 16.472656c-4.953125 4.949218-4.960937 12.988281-.027344 17.953125 2.476563 2.488281 5.71875 3.730469 8.96875 3.730469 3.230469 0 6.46875-1.234376 8.9375-3.703126l16.527344-16.523437v-35.855469zm0 0" fill="#fff48f"/></svg>